<svg xmlns="http://www.w3.org/2000/svg" xmlns:xlink="http://www.w3.org/1999/xlink" width="95.116" height="109.891" viewBox="0 0 95.116 109.891">
  <defs>
    <clipPath id="clip-path">
      <path id="Path_1006" data-name="Path 1006" d="M0-120.986H95.116V-230.877H0Z" transform="translate(0 230.877)" fill="none"/>
    </clipPath>
  </defs>
  <g id="Group_245" data-name="Group 245" transform="translate(0 230.877)">
    <g id="Group_244" data-name="Group 244" transform="translate(0 -230.877)" clip-path="url(#clip-path)">
      <g id="Group_236" data-name="Group 236" transform="translate(71.757 68.157)">
        <path id="Path_998" data-name="Path 998" d="M-1.093,0a.814.814,0,0,0-.759.4,2.263,2.263,0,0,0-.234,1.142A2.259,2.259,0,0,0-1.851,2.68a.813.813,0,0,0,.759.4.823.823,0,0,0,.769-.4A2.253,2.253,0,0,0-.089,1.539,2.257,2.257,0,0,0-.323.4.824.824,0,0,0-1.093,0" transform="translate(2.085)" fill="#ff2d16"/>
      </g>
      <g id="Group_237" data-name="Group 237" transform="translate(51.657 68.128)">
        <path id="Path_999" data-name="Path 999" d="M-1.125,0a.947.947,0,0,0-.726.267,1.26,1.26,0,0,0-.3.754H-.218A1.206,1.206,0,0,0-.47.282.805.805,0,0,0-1.125,0" transform="translate(2.147)" fill="#ff2d16"/>
      </g>
      <g id="Group_238" data-name="Group 238" transform="translate(46.039 72.322)">
        <path id="Path_1000" data-name="Path 1000" d="M0-.674a.494.494,0,0,0,.273.493A1.721,1.721,0,0,0,1-.052a2.118,2.118,0,0,0,.97-.191.577.577,0,0,0,.368-.516.687.687,0,0,0-.024-.182.371.371,0,0,0-.09-.157.514.514,0,0,0-.187-.12.855.855,0,0,0-.319-.048l-1-.019a.821.821,0,0,0-.348.048.6.6,0,0,0-.219.148.527.527,0,0,0-.115.2A.75.75,0,0,0,0-.674" transform="translate(0 1.286)" fill="#ff2d16"/>
      </g>
      <g id="Group_239" data-name="Group 239" transform="translate(40.719 68.157)">
        <path id="Path_1001" data-name="Path 1001" d="M-1.094,0a.814.814,0,0,0-.759.4,2.267,2.267,0,0,0-.234,1.142A2.263,2.263,0,0,0-1.853,2.68a.813.813,0,0,0,.759.4.823.823,0,0,0,.769-.4A2.263,2.263,0,0,0-.09,1.539,2.267,2.267,0,0,0-.325.4.824.824,0,0,0-1.094,0" transform="translate(2.087)" fill="#ff2d16"/>
      </g>
      <g id="Group_240" data-name="Group 240" transform="translate(46.374 67.986)">
        <path id="Path_1002" data-name="Path 1002" d="M-.852,0a.706.706,0,0,0-.593.234,1.016,1.016,0,0,0-.181.635,1,1,0,0,0,.181.631.712.712,0,0,0,.593.229A.684.684,0,0,0-.275,1.5,1.009,1.009,0,0,0-.1.869,1.03,1.03,0,0,0-.275.234.678.678,0,0,0-.852,0" transform="translate(1.626)" fill="#ff2d16"/>
      </g>
      <g id="Group_241" data-name="Group 241" transform="translate(0 0)">
        <path id="Path_1003" data-name="Path 1003" d="M-89.384-15.336a47.558,47.558,0,0,0-67.257,0,47.558,47.558,0,0,0,0,67.256h0l25.2,25.2h0l.02.02a11.889,11.889,0,0,0,16.814,0l.01-.01L-89.384,51.92a47.558,47.558,0,0,0,0-67.256M-113.778,17.8a9.313,9.313,0,0,1,1.769-3.239,8.373,8.373,0,0,1,2.9-2.178,9.544,9.544,0,0,1,4.039-.8,8.593,8.593,0,0,1,3.575.707,7.876,7.876,0,0,1,2.662,1.936,8.152,8.152,0,0,1,1.656,2.922,11.533,11.533,0,0,1,.559,3.63q0,.708-.056,1.4t-.131,1.1h-12.36a4.051,4.051,0,0,0,1.565,3.239,6.291,6.291,0,0,0,3.723,1.005,14.3,14.3,0,0,0,2.587-.242,14.711,14.711,0,0,0,2.514-.689,8.722,8.722,0,0,1,.707,1.787,9.2,9.2,0,0,1,.335,2.234,18.145,18.145,0,0,1-6.553,1.117,12.712,12.712,0,0,1-4.6-.744,8.159,8.159,0,0,1-3.127-2.067,8.274,8.274,0,0,1-1.788-3.146,13.153,13.153,0,0,1-.576-3.983,12.994,12.994,0,0,1,.6-3.984M-139.922,2.372a3.314,3.314,0,0,1,3.314,3.314A3.314,3.314,0,0,1-139.922,9a3.314,3.314,0,0,1-3.313-3.314,3.314,3.314,0,0,1,3.313-3.314M-153.8,31.277a13.789,13.789,0,0,1-1.489.149c-.521.024-.955.038-1.3.038-.373,0-.795-.013-1.266-.038a7.652,7.652,0,0,1-1.341-.186l-7.185-19.174a10.7,10.7,0,0,1,1.656-.224q.763-.036,1.322-.037.745,0,1.489.037a7.728,7.728,0,0,1,1.378.186l4.207,14.334,4.133-14.334q.633-.111,1.34-.167t1.415-.056q.558,0,1.284.037a11.571,11.571,0,0,1,1.657.224Zm16.9,0a15.884,15.884,0,0,1-2.606.223,15.685,15.685,0,0,1-2.569-.223V16.049h-2.495a8.453,8.453,0,0,1-.167-1.023A10,10,0,0,1-144.789,14a8.8,8.8,0,0,1,.223-1.973h7.67Zm4.665,11.617c-.115.019-.228.031-.344.039s-.226.009-.335.009-.218,0-.334-.009-.229-.02-.344-.039V40.1a1.593,1.593,0,0,0-.162-.793.589.589,0,0,0-.553-.277,1.245,1.245,0,0,0-.336.048.714.714,0,0,0-.31.187,1.049,1.049,0,0,0-.229.386,1.972,1.972,0,0,0-.09.652v2.6c-.115.019-.23.031-.345.039s-.226.009-.334.009-.218,0-.329-.009-.224-.02-.339-.039V35.9a2.881,2.881,0,0,1,.334-.039c.115-.006.227-.01.335-.01s.22,0,.334.01a3.27,3.27,0,0,1,.345.039v2.627c.044-.057.1-.126.176-.206a1.477,1.477,0,0,1,.272-.23,1.628,1.628,0,0,1,.393-.186,1.678,1.678,0,0,1,.525-.076,1.611,1.611,0,0,1,1.246.459,2.073,2.073,0,0,1,.425,1.443Zm5.609-1.452a2.266,2.266,0,0,1-.44.816,2.006,2.006,0,0,1-.744.544,2.616,2.616,0,0,1-1.051.2,2.574,2.574,0,0,1-1.046-.2,1.953,1.953,0,0,1-.736-.544,2.387,2.387,0,0,1-.439-.816,3.311,3.311,0,0,1-.148-1.012,3.421,3.421,0,0,1,.148-1.023,2.393,2.393,0,0,1,.439-.826,2.01,2.01,0,0,1,.736-.549,2.518,2.518,0,0,1,1.046-.2,2.56,2.56,0,0,1,1.051.2,2.066,2.066,0,0,1,.744.549,2.274,2.274,0,0,1,.44.826,3.581,3.581,0,0,1,.142,1.023,3.465,3.465,0,0,1-.142,1.012m-.893-10.2L-134.7,12.066a10.7,10.7,0,0,1,1.657-.224q.762-.036,1.322-.037.744,0,1.489.037a7.722,7.722,0,0,1,1.378.186l4.207,14.334,4.133-14.334q.633-.111,1.34-.167t1.415-.056c.373,0,.8.013,1.285.037a11.578,11.578,0,0,1,1.656.224l-7.3,19.211a13.771,13.771,0,0,1-1.488.149c-.522.024-.956.038-1.3.038-.372,0-.795-.013-1.266-.038a7.652,7.652,0,0,1-1.341-.186m6.844,7.452a2.949,2.949,0,0,1-.038.315h-.774a1.274,1.274,0,0,1,.086.228,1.3,1.3,0,0,1,.039.354,1.727,1.727,0,0,1-.139.693,1.493,1.493,0,0,1-.406.548,1.968,1.968,0,0,1-.654.364,2.668,2.668,0,0,1-.874.134,2.817,2.817,0,0,1-.736-.087.462.462,0,0,0-.2.225.754.754,0,0,0-.039.225.327.327,0,0,0,.1.248.645.645,0,0,0,.406.1l1.309.019a1.965,1.965,0,0,1,1.28.386,1.334,1.334,0,0,1,.41,1.047,1.33,1.33,0,0,1-.209.73,1.813,1.813,0,0,1-.574.559,2.9,2.9,0,0,1-.859.353,4.379,4.379,0,0,1-1.07.124,4.541,4.541,0,0,1-.973-.089,2.069,2.069,0,0,1-.654-.254.951.951,0,0,1-.364-.4,1.243,1.243,0,0,1-.11-.525,1.164,1.164,0,0,1,.2-.708,1.958,1.958,0,0,1,.551-.487,1.07,1.07,0,0,1-.349-.329.891.891,0,0,1-.129-.5,1.045,1.045,0,0,1,.152-.592,1.726,1.726,0,0,1,.45-.44,1.641,1.641,0,0,1-.517-.583,1.612,1.612,0,0,1-.181-.765,1.678,1.678,0,0,1,.143-.692,1.569,1.569,0,0,1,.416-.555,1.987,1.987,0,0,1,.663-.367,2.7,2.7,0,0,1,.88-.134,2.51,2.51,0,0,1,.878.149,2.121,2.121,0,0,1,.669.377,1.123,1.123,0,0,1,.45-.358,1.785,1.785,0,0,1,.725-.12c.013.082.023.164.033.244a2.026,2.026,0,0,1,.015.253c0,.1,0,.2-.01.306m4.953,1.858c-.009.119-.02.212-.031.281h-3.173a1.037,1.037,0,0,0,.4.832,1.613,1.613,0,0,0,.956.257,3.6,3.6,0,0,0,.664-.062,3.766,3.766,0,0,0,.645-.175,2.211,2.211,0,0,1,.181.458,2.356,2.356,0,0,1,.087.573,4.652,4.652,0,0,1-1.681.286,3.248,3.248,0,0,1-1.18-.191,2.1,2.1,0,0,1-.8-.53,2.147,2.147,0,0,1-.458-.807,3.378,3.378,0,0,1-.148-1.023,3.343,3.343,0,0,1,.153-1.022,2.4,2.4,0,0,1,.453-.83,2.158,2.158,0,0,1,.746-.56,2.446,2.446,0,0,1,1.036-.2,2.208,2.208,0,0,1,.918.181,2.051,2.051,0,0,1,.683.5,2.088,2.088,0,0,1,.425.75,2.913,2.913,0,0,1,.143.931c0,.122,0,.24-.015.358m4.376,1.437a1.513,1.513,0,0,1-.43.53,2.131,2.131,0,0,1-.683.354,2.973,2.973,0,0,1-.907.129c-.154,0-.293,0-.421-.014a3.657,3.657,0,0,1-.368-.048c-.118-.023-.234-.049-.349-.082s-.238-.073-.372-.124a2.753,2.753,0,0,1,.091-.521,3.3,3.3,0,0,1,.187-.51,3.849,3.849,0,0,0,.6.187,2.716,2.716,0,0,0,.587.062,1.866,1.866,0,0,0,.291-.024,1,1,0,0,0,.292-.087.668.668,0,0,0,.224-.162.374.374,0,0,0,.091-.263.378.378,0,0,0-.139-.328,1.313,1.313,0,0,0-.386-.178l-.592-.171a1.912,1.912,0,0,1-.836-.454,1.227,1.227,0,0,1-.3-.9,1.365,1.365,0,0,1,.52-1.137,2.234,2.234,0,0,1,1.419-.411,4.078,4.078,0,0,1,.735.067,4.784,4.784,0,0,1,.736.2,2.708,2.708,0,0,1-.1.517,2.549,2.549,0,0,1-.182.468,3.588,3.588,0,0,0-.506-.168,2.257,2.257,0,0,0-.583-.071,1.062,1.062,0,0,0-.506.1.341.341,0,0,0-.181.321.329.329,0,0,0,.128.3,1.519,1.519,0,0,0,.369.163l.545.161a2.735,2.735,0,0,1,.482.188,1.318,1.318,0,0,1,.368.272,1.17,1.17,0,0,1,.239.4,1.746,1.746,0,0,1,.085.583,1.493,1.493,0,0,1-.148.659m4.064.97a5.379,5.379,0,0,1-.7.043,2.737,2.737,0,0,1-1.079-.2,2.047,2.047,0,0,1-.759-.539,2.255,2.255,0,0,1-.454-.816,3.349,3.349,0,0,1-.153-1.027,3.374,3.374,0,0,1,.148-1.014,2.385,2.385,0,0,1,.448-.821,2.1,2.1,0,0,1,.752-.554,2.523,2.523,0,0,1,1.041-.2c.141,0,.268,0,.386.01a2.8,2.8,0,0,1,.339.038,2.926,2.926,0,0,1,.324.077c.109.032.229.073.364.124a2.419,2.419,0,0,1-.057.493,2.237,2.237,0,0,1-.182.52,3.108,3.108,0,0,0-.5-.129,3.229,3.229,0,0,0-.493-.033,1.065,1.065,0,0,0-.893.386,1.769,1.769,0,0,0-.3,1.1,1.628,1.628,0,0,0,.325,1.127,1.133,1.133,0,0,0,.88.353c.1,0,.183,0,.262,0a1.746,1.746,0,0,0,.234-.025,1.633,1.633,0,0,0,.234-.057c.079-.025.174-.058.282-.1a2.024,2.024,0,0,1,.192.444,2.105,2.105,0,0,1,.076.6,3,3,0,0,1-.717.195m6.085-.062c-.113.019-.228.031-.343.039s-.226.009-.334.009-.221,0-.334-.009-.23-.02-.344-.039V40.1a1.587,1.587,0,0,0-.163-.793.59.59,0,0,0-.553-.277,1.238,1.238,0,0,0-.335.048.707.707,0,0,0-.311.187,1.042,1.042,0,0,0-.229.386,1.958,1.958,0,0,0-.09.652v2.6c-.115.019-.229.031-.344.039s-.226.009-.335.009-.218,0-.33-.009-.224-.02-.338-.039V35.9a2.882,2.882,0,0,1,.334-.039c.115-.006.226-.01.335-.01s.22,0,.335.01a3.266,3.266,0,0,1,.344.039v2.627c.044-.057.1-.126.176-.206a1.616,1.616,0,0,1,.272-.23,1.654,1.654,0,0,1,.393-.186,1.685,1.685,0,0,1,.525-.076,1.612,1.612,0,0,1,1.247.459,2.071,2.071,0,0,1,.425,1.443Zm5.609-1.452a2.258,2.258,0,0,1-.44.816,2,2,0,0,1-.745.544,2.611,2.611,0,0,1-1.051.2,2.575,2.575,0,0,1-1.046-.2,1.946,1.946,0,0,1-.735-.544,2.349,2.349,0,0,1-.44-.816,3.34,3.34,0,0,1-.148-1.012,3.452,3.452,0,0,1,.148-1.023,2.355,2.355,0,0,1,.44-.826,2,2,0,0,1,.735-.549,2.519,2.519,0,0,1,1.046-.2,2.555,2.555,0,0,1,1.051.2,2.055,2.055,0,0,1,.745.549,2.265,2.265,0,0,1,.44.826,3.564,3.564,0,0,1,.144,1.023,3.449,3.449,0,0,1-.144,1.012m5.589,0a2.3,2.3,0,0,1-.44.816,1.993,1.993,0,0,1-.745.544,2.62,2.62,0,0,1-1.05.2,2.578,2.578,0,0,1-1.047-.2,1.962,1.962,0,0,1-.736-.544,2.4,2.4,0,0,1-.439-.816A3.341,3.341,0,0,1-94.6,40.43a3.452,3.452,0,0,1,.148-1.023,2.4,2.4,0,0,1,.439-.826,2.02,2.02,0,0,1,.736-.549,2.522,2.522,0,0,1,1.047-.2,2.563,2.563,0,0,1,1.05.2,2.051,2.051,0,0,1,.745.549,2.3,2.3,0,0,1,.44.826,3.6,3.6,0,0,1,.142,1.023A3.481,3.481,0,0,1-90,41.442m3.629,1.276a.551.551,0,0,1-.019.138,1.7,1.7,0,0,1-.367.068c-.144.013-.277.019-.4.019a1.682,1.682,0,0,1-1.181-.406,1.718,1.718,0,0,1-.444-1.323V35.9a4.069,4.069,0,0,1,.677-.057,4.029,4.029,0,0,1,.669.057v5.015a2.656,2.656,0,0,0,.033.476.711.711,0,0,0,.106.283.36.36,0,0,0,.186.139.925.925,0,0,0,.287.037,1.5,1.5,0,0,0,.167-.008,1.742,1.742,0,0,0,.176-.029,2.952,2.952,0,0,1,.106.764Zm4.288-12.875a8.292,8.292,0,0,1-2.662,1.378,11.544,11.544,0,0,1-3.537.5q-.893,0-1.639-.056a12.961,12.961,0,0,1-1.433-.186q-.689-.131-1.358-.317t-1.452-.484a10.755,10.755,0,0,1,.354-2.03,12.821,12.821,0,0,1,.726-1.991,15.385,15.385,0,0,0,2.327.726,10.58,10.58,0,0,0,2.29.242,7.577,7.577,0,0,0,1.135-.093,4.149,4.149,0,0,0,1.136-.335,2.688,2.688,0,0,0,.874-.634,1.465,1.465,0,0,0,.354-1.024,1.481,1.481,0,0,0-.539-1.285,5.24,5.24,0,0,0-1.508-.689l-2.308-.67a7.362,7.362,0,0,1-3.258-1.769,4.779,4.779,0,0,1-1.172-3.518,5.329,5.329,0,0,1,2.029-4.43,8.7,8.7,0,0,1,5.529-1.6,15.843,15.843,0,0,1,2.867.26,18.356,18.356,0,0,1,2.866.782,10.166,10.166,0,0,1-.372,2.01,9.64,9.64,0,0,1-.707,1.824,14.893,14.893,0,0,0-1.973-.652,9.039,9.039,0,0,0-2.271-.279,4.124,4.124,0,0,0-1.974.391,1.323,1.323,0,0,0-.706,1.248,1.283,1.283,0,0,0,.5,1.154,5.87,5.87,0,0,0,1.433.633l2.122.633a10.493,10.493,0,0,1,1.881.726,5.192,5.192,0,0,1,1.433,1.06,4.454,4.454,0,0,1,.931,1.564,6.759,6.759,0,0,1,.335,2.271,5.815,5.815,0,0,1-.577,2.569,5.943,5.943,0,0,1-1.675,2.066" transform="translate(170.57 29.266)" fill="#e00020"/>
      </g>
      <g id="Group_242" data-name="Group 242" transform="translate(61.446 44.868)">
        <path id="Path_1004" data-name="Path 1004" d="M-7.194-1.209a3.133,3.133,0,0,0-2.55-1.1,3.674,3.674,0,0,0-2.83,1.042,4.894,4.894,0,0,0-1.154,2.941h7.521a4.692,4.692,0,0,0-.987-2.885" transform="translate(13.728 2.308)" fill="#ff2d16"/>
      </g>
      <g id="Group_243" data-name="Group 243" transform="translate(77.345 68.157)">
        <path id="Path_1005" data-name="Path 1005" d="M-1.094,0a.814.814,0,0,0-.76.4,2.272,2.272,0,0,0-.234,1.142A2.268,2.268,0,0,0-1.854,2.68a.813.813,0,0,0,.76.4.821.821,0,0,0,.768-.4A2.257,2.257,0,0,0-.091,1.539,2.261,2.261,0,0,0-.326.4.822.822,0,0,0-1.094,0" transform="translate(2.088)" fill="#ff2d16"/>
      </g>
    </g>
  </g>
</svg>
